<svg id="Layer_1" data-name="Layer 1" xmlns="http://www.w3.org/2000/svg" xmlns:xlink="http://www.w3.org/1999/xlink" viewBox="0 0 700 246"><defs><style>.cls-1{fill:#404242;}.cls-11,.cls-16,.cls-17,.cls-19,.cls-2,.cls-21,.cls-23,.cls-5,.cls-7,.cls-9{fill:none;}.cls-2{stroke:#a5a5a5;}.cls-11,.cls-17,.cls-19,.cls-2,.cls-21,.cls-23,.cls-7,.cls-9{stroke-linecap:round;stroke-linejoin:round;}.cls-3{fill:url(#New_Gradient_Swatch_6);}.cls-15,.cls-4{fill:#fff;}.cls-15,.cls-16,.cls-4,.cls-5{stroke-miterlimit:10;stroke-width:3px;}.cls-4{stroke:url(#New_Gradient_Swatch_6-2);}.cls-5{stroke:url(#linear-gradient);}.cls-6{fill:#808285;}.cls-11,.cls-17,.cls-19,.cls-21,.cls-23,.cls-7,.cls-9{stroke-width:2px;}.cls-7{stroke:url(#New_Gradient_Swatch_6-3);}.cls-8{fill:url(#New_Gradient_Swatch_6-3);}.cls-9{stroke:url(#New_Gradient_Swatch_6-5);}.cls-10{fill:url(#New_Gradient_Swatch_6-5);}.cls-11{stroke:url(#New_Gradient_Swatch_6-7);}.cls-12{fill:url(#New_Gradient_Swatch_6-7);}.cls-13{fill:url(#New_Gradient_Swatch_6-9);}.cls-14{fill:url(#New_Gradient_Swatch_6-10);}.cls-15{stroke:url(#New_Gradient_Swatch_6-11);}.cls-16{stroke:url(#linear-gradient-2);}.cls-17{stroke:url(#New_Gradient_Swatch_6-12);}.cls-18{fill:url(#New_Gradient_Swatch_6-13);}.cls-19{stroke:url(#New_Gradient_Swatch_6-14);}.cls-20{fill:url(#New_Gradient_Swatch_6-14);}.cls-21{stroke:url(#New_Gradient_Swatch_6-16);}.cls-22{fill:url(#New_Gradient_Swatch_6-16);}.cls-23{stroke:url(#New_Gradient_Swatch_6-18);}.cls-24{fill:url(#New_Gradient_Swatch_6-18);}.cls-25{fill:url(#New_Gradient_Swatch_6-20);}.cls-26{fill:#707070;}</style><linearGradient id="New_Gradient_Swatch_6" x1="9367.66" y1="199.88" x2="9367.66" y2="176.72" gradientTransform="translate(9427.36 396) rotate(180)" gradientUnits="userSpaceOnUse"><stop offset="0" stop-color="#7f76b6"/><stop offset="1" stop-color="#77c3e2"/></linearGradient><linearGradient id="New_Gradient_Swatch_6-2" x1="18.08" y1="174.28" x2="101.42" y2="257.62" gradientTransform="matrix(1, 0, 0, -1, 0, 382)" xlink:href="#New_Gradient_Swatch_6"/><linearGradient id="linear-gradient" x1="46.39" y1="232.56" x2="72.87" y2="206.08" gradientUnits="userSpaceOnUse"><stop offset="0" stop-color="#7f76b6"/><stop offset="0.05" stop-color="#7d88c0"/><stop offset="0.14" stop-color="#7b9ecd"/><stop offset="0.23" stop-color="#79afd6"/><stop offset="0.36" stop-color="#78badd"/><stop offset="0.53" stop-color="#77c1e1"/><stop offset="1" stop-color="#77c3e2"/></linearGradient><linearGradient id="New_Gradient_Swatch_6-3" x1="211.12" y1="159.11" x2="133.49" y2="159.11" gradientTransform="matrix(1, 0, 0, 1, 0, 0)" xlink:href="#New_Gradient_Swatch_6"/><linearGradient id="New_Gradient_Swatch_6-5" x1="133.49" y1="189.11" x2="211.12" y2="189.11" gradientTransform="matrix(1, 0, 0, 1, 0, 0)" xlink:href="#New_Gradient_Swatch_6"/><linearGradient id="New_Gradient_Swatch_6-7" x1="211.12" y1="219.32" x2="133.49" y2="219.32" gradientTransform="matrix(1, 0, 0, 1, 0, 0)" xlink:href="#New_Gradient_Swatch_6"/><linearGradient id="New_Gradient_Swatch_6-9" x1="246.35" y1="205.35" x2="308.47" y2="143.24" gradientTransform="matrix(1, 0, 0, 1, 0, 0)" xlink:href="#New_Gradient_Swatch_6"/><linearGradient id="New_Gradient_Swatch_6-10" x1="9009.66" y1="199.96" x2="9009.66" y2="176.8" xlink:href="#New_Gradient_Swatch_6"/><linearGradient id="New_Gradient_Swatch_6-11" x1="376.08" y1="174.36" x2="459.42" y2="257.7" gradientTransform="matrix(1, 0, 0, -1, 0, 382)" xlink:href="#New_Gradient_Swatch_6"/><linearGradient id="linear-gradient-2" x1="404.39" y1="232.47" x2="430.87" y2="206" xlink:href="#linear-gradient"/><linearGradient id="New_Gradient_Swatch_6-12" x1="569.12" y1="159.24" x2="491.49" y2="159.24" gradientTransform="matrix(1, 0, 0, 1, 0, 0)" xlink:href="#New_Gradient_Swatch_6"/><linearGradient id="New_Gradient_Swatch_6-13" x1="569.12" y1="159.24" x2="491.49" y2="159.24" gradientTransform="matrix(1, 0, 0, 1, 0, 0)" xlink:href="#New_Gradient_Swatch_6"/><linearGradient id="New_Gradient_Swatch_6-14" x1="569.12" y1="189.24" x2="491.49" y2="189.24" gradientTransform="matrix(1, 0, 0, 1, 0, 0)" xlink:href="#New_Gradient_Swatch_6"/><linearGradient id="New_Gradient_Swatch_6-16" x1="491.49" y1="129.24" x2="569.12" y2="129.24" gradientTransform="matrix(1, 0, 0, 1, 0, 0)" xlink:href="#New_Gradient_Swatch_6"/><linearGradient id="New_Gradient_Swatch_6-18" x1="569.12" y1="219.24" x2="491.49" y2="219.24" gradientTransform="matrix(1, 0, 0, 1, 0, 0)" xlink:href="#New_Gradient_Swatch_6"/><linearGradient id="New_Gradient_Swatch_6-20" x1="597.35" y1="205.27" x2="659.47" y2="143.16" gradientTransform="matrix(1, 0, 0, 1, 0, 0)" xlink:href="#New_Gradient_Swatch_6"/></defs><title>update-v.2</title><path class="cls-1" d="M202.9,30.75h-2V15.39h-5.42V13.62h12.84v1.77H202.9Z"/><path class="cls-1" d="M217.58,15.16A5.59,5.59,0,0,0,213.12,17a7.58,7.58,0,0,0-1.63,5.15,7.77,7.77,0,0,0,1.57,5.2,5.61,5.61,0,0,0,4.5,1.83,15.75,15.75,0,0,0,4.09-.64v1.74a12.49,12.49,0,0,1-4.4.67,7.44,7.44,0,0,1-5.84-2.3,9.44,9.44,0,0,1-2.06-6.52,10.34,10.34,0,0,1,1-4.65,7.18,7.18,0,0,1,2.85-3.07,8.77,8.77,0,0,1,4.4-1.07,10.62,10.62,0,0,1,4.72,1l-.85,1.71A9,9,0,0,0,217.58,15.16Z"/><path class="cls-1" d="M236.08,18.61a4.83,4.83,0,0,1-1.78,4,8.06,8.06,0,0,1-5.08,1.4h-2v6.73h-2V13.62h4.44C233.94,13.62,236.08,15.29,236.08,18.61Zm-8.87,3.7H229a6.67,6.67,0,0,0,3.83-.86A3.14,3.14,0,0,0,234,18.71a3,3,0,0,0-1.11-2.53,5.77,5.77,0,0,0-3.47-.84h-2.22Z"/><path class="cls-1" d="M248.42,30.75l-4.88-12.84h2.09l2.76,7.62a32,32,0,0,1,1.1,3.47h.1a26.22,26.22,0,0,1,.81-2.58c.46-1.3,1.49-4.13,3.08-8.51h2.08l-4.87,12.84Z"/><path class="cls-1" d="M266.16,27.25A3.22,3.22,0,0,1,264.83,30a6.27,6.27,0,0,1-3.75,1,8.19,8.19,0,0,1-4-.81v-1.8a9.81,9.81,0,0,0,2,.73,8.32,8.32,0,0,0,2.05.27,4.7,4.7,0,0,0,2.34-.48,1.61,1.61,0,0,0,.82-1.48,1.64,1.64,0,0,0-.65-1.29,10.56,10.56,0,0,0-2.54-1.26,14,14,0,0,1-2.55-1.16,3.53,3.53,0,0,1-1.12-1.13,3,3,0,0,1-.37-1.52,2.88,2.88,0,0,1,1.28-2.48,6,6,0,0,1,3.5-.9,10.36,10.36,0,0,1,4.06.84l-.7,1.58a9.28,9.28,0,0,0-3.5-.79,4,4,0,0,0-2.09.43,1.36,1.36,0,0,0-.7,1.19,1.48,1.48,0,0,0,.26.88,2.45,2.45,0,0,0,.85.69,18,18,0,0,0,2.25.95,8.43,8.43,0,0,1,3.09,1.68A2.93,2.93,0,0,1,266.16,27.25Z"/><path class="cls-1" d="M288.79,13.62V24.71a6,6,0,0,1-1.77,4.6A6.77,6.77,0,0,1,282.16,31a6.48,6.48,0,0,1-4.79-1.69,6.24,6.24,0,0,1-1.69-4.64v-11h2V24.8a4.39,4.39,0,0,0,1.17,3.29,4.73,4.73,0,0,0,3.45,1.15,4.56,4.56,0,0,0,3.34-1.15,4.44,4.44,0,0,0,1.17-3.31V13.62Z"/><path class="cls-1" d="M306.8,22c0,2.83-.76,5-2.3,6.49s-3.74,2.24-6.63,2.24h-4.74V13.62h5.25a8.39,8.39,0,0,1,6.21,2.22A8.37,8.37,0,0,1,306.8,22Zm-2.11.07A6.92,6.92,0,0,0,303,17a6.74,6.74,0,0,0-5-1.7h-2.89V29h2.43a7.35,7.35,0,0,0,5.35-1.75A6.93,6.93,0,0,0,304.69,22.09Z"/><path class="cls-1" d="M321.28,18.61a4.82,4.82,0,0,1-1.77,4,8.06,8.06,0,0,1-5.08,1.4h-2v6.73h-2V13.62h4.44C319.14,13.62,321.28,15.29,321.28,18.61Zm-8.87,3.7h1.8a6.67,6.67,0,0,0,3.83-.86,3.14,3.14,0,0,0,1.18-2.74,3,3,0,0,0-1.11-2.53,5.77,5.77,0,0,0-3.47-.84h-2.23Z"/><path class="cls-1" d="M338.44,15.16A5.59,5.59,0,0,0,334,17a7.58,7.58,0,0,0-1.63,5.15,7.77,7.77,0,0,0,1.57,5.2,5.61,5.61,0,0,0,4.5,1.83,15.75,15.75,0,0,0,4.09-.64v1.74a12.53,12.53,0,0,1-4.4.67,7.44,7.44,0,0,1-5.84-2.3,9.44,9.44,0,0,1-2.06-6.52,10.34,10.34,0,0,1,1-4.65,7.2,7.2,0,0,1,2.86-3.07,8.77,8.77,0,0,1,4.4-1.07,10.62,10.62,0,0,1,4.72,1l-.85,1.71A9.06,9.06,0,0,0,338.44,15.16Z"/><path class="cls-1" d="M356.55,24.32A7.07,7.07,0,0,1,355,29.23,5.58,5.58,0,0,1,350.6,31a5.78,5.78,0,0,1-3.06-.81,5.3,5.3,0,0,1-2.06-2.32,8.16,8.16,0,0,1-.73-3.54,7.11,7.11,0,0,1,1.57-4.89,5.55,5.55,0,0,1,4.36-1.75A5.43,5.43,0,0,1,355,19.47,7,7,0,0,1,356.55,24.32Zm-9.78,0a6.14,6.14,0,0,0,1,3.75,3.91,3.91,0,0,0,5.8,0,6.09,6.09,0,0,0,1-3.76,6,6,0,0,0-1-3.72,3.48,3.48,0,0,0-2.93-1.27,3.44,3.44,0,0,0-2.88,1.25A6.05,6.05,0,0,0,346.77,24.32Z"/><path class="cls-1" d="M376.14,30.75V22.4a3.45,3.45,0,0,0-.66-2.3,2.51,2.51,0,0,0-2-.77,3.3,3.3,0,0,0-2.68,1,5,5,0,0,0-.87,3.21v7.17H368V22.4a3.45,3.45,0,0,0-.66-2.3,2.53,2.53,0,0,0-2.05-.77,3.18,3.18,0,0,0-2.68,1.09,6,6,0,0,0-.85,3.6v6.73h-1.94V17.91h1.58l.32,1.76h.09a3.86,3.86,0,0,1,1.55-1.47,4.78,4.78,0,0,1,2.25-.52c2,0,3.32.72,3.93,2.18h.1a4.07,4.07,0,0,1,1.66-1.6,5.2,5.2,0,0,1,2.49-.58A4.33,4.33,0,0,1,377,18.8a5,5,0,0,1,1.08,3.58v8.37Z"/><path class="cls-1" d="M398.23,30.75V22.4a3.45,3.45,0,0,0-.66-2.3,2.52,2.52,0,0,0-2-.77,3.3,3.3,0,0,0-2.68,1,5,5,0,0,0-.87,3.21v7.17H390V22.4a3.45,3.45,0,0,0-.66-2.3,2.53,2.53,0,0,0-2.05-.77,3.18,3.18,0,0,0-2.68,1.09,5.94,5.94,0,0,0-.85,3.6v6.73h-1.94V17.91h1.58l.31,1.76h.1a3.79,3.79,0,0,1,1.55-1.47,4.77,4.77,0,0,1,2.24-.52c2,0,3.32.72,3.94,2.18h.1a4,4,0,0,1,1.66-1.6,5.16,5.16,0,0,1,2.48-.58,4.34,4.34,0,0,1,3.27,1.12,5,5,0,0,1,1.08,3.58v8.37Z"/><path class="cls-1" d="M405.77,17.91v8.33a3.36,3.36,0,0,0,.72,2.35,2.92,2.92,0,0,0,2.24.77,3.65,3.65,0,0,0,2.94-1.1,5.57,5.57,0,0,0,.94-3.6V17.91h1.94V30.75H413L412.66,29h-.1a3.87,3.87,0,0,1-1.66,1.46,5.66,5.66,0,0,1-2.42.5A4.93,4.93,0,0,1,405,29.88a4.75,4.75,0,0,1-1.17-3.57v-8.4Z"/><path class="cls-1" d="M427.18,30.75v-8.3a3.4,3.4,0,0,0-.71-2.35,3,3,0,0,0-2.24-.77,3.66,3.66,0,0,0-3,1.09,5.47,5.47,0,0,0-.94,3.6v6.73h-1.95V17.91H420l.32,1.76h.09a4,4,0,0,1,1.68-1.47,5.41,5.41,0,0,1,2.4-.52A4.89,4.89,0,0,1,428,18.8a4.76,4.76,0,0,1,1.17,3.58v8.37Z"/><path class="cls-1" d="M432.7,14.43a1.3,1.3,0,0,1,.33-1,1.21,1.21,0,0,1,1.63,0,1.28,1.28,0,0,1,.34,1,1.32,1.32,0,0,1-.34,1,1.17,1.17,0,0,1-.81.32,1.14,1.14,0,0,1-.82-.32A1.32,1.32,0,0,1,432.7,14.43Zm2.11,16.32h-1.95V17.91h1.95Z"/><path class="cls-1" d="M443.84,31a5.47,5.47,0,0,1-4.32-1.72A7,7,0,0,1,438,24.42a7.34,7.34,0,0,1,1.55-5A5.6,5.6,0,0,1,444,17.68a8.41,8.41,0,0,1,1.86.2,6.54,6.54,0,0,1,1.45.46l-.6,1.66a9.19,9.19,0,0,0-1.4-.43,6.54,6.54,0,0,0-1.35-.17q-3.92,0-3.92,5A5.9,5.9,0,0,0,441,28a3.31,3.31,0,0,0,2.83,1.27,8.64,8.64,0,0,0,3.29-.69v1.72A7,7,0,0,1,443.84,31Z"/><path class="cls-1" d="M458.18,30.75l-.39-1.82h-.09a5.36,5.36,0,0,1-1.92,1.63,5.72,5.72,0,0,1-2.38.43,4.29,4.29,0,0,1-3-1,3.57,3.57,0,0,1-1.08-2.8q0-3.89,6.22-4.07l2.18-.07v-.8a3.21,3.21,0,0,0-.65-2.23,2.66,2.66,0,0,0-2.08-.72,8.39,8.39,0,0,0-3.63,1l-.6-1.49a9.57,9.57,0,0,1,2.08-.81,9.3,9.3,0,0,1,2.27-.29,4.87,4.87,0,0,1,3.4,1A4.25,4.25,0,0,1,459.62,22v8.76Zm-4.39-1.37a4,4,0,0,0,2.85-1,3.71,3.71,0,0,0,1-2.79V24.44l-1.95.08a7.25,7.25,0,0,0-3.35.72,2.19,2.19,0,0,0-1,2,2,2,0,0,0,.64,1.6A2.63,2.63,0,0,0,453.79,29.38Z"/><path class="cls-1" d="M467.67,29.38a6.54,6.54,0,0,0,1-.07,7.4,7.4,0,0,0,.76-.16v1.49a3.76,3.76,0,0,1-.93.25,6.61,6.61,0,0,1-1.11.1q-3.74,0-3.73-3.93V19.42h-1.84v-.93l1.84-.81.82-2.75h1.13v3h3.72v1.51h-3.72V27a2.58,2.58,0,0,0,.55,1.78A1.9,1.9,0,0,0,467.67,29.38Z"/><path class="cls-1" d="M471.81,14.43a1.34,1.34,0,0,1,.32-1,1.2,1.2,0,0,1,.83-.31,1.13,1.13,0,0,1,.8.32,1.24,1.24,0,0,1,.34,1,1.28,1.28,0,0,1-.34,1,1.13,1.13,0,0,1-.8.32,1.16,1.16,0,0,1-.83-.32A1.36,1.36,0,0,1,471.81,14.43Zm2.11,16.32H472V17.91h1.95Z"/><path class="cls-1" d="M488.85,24.32a7.12,7.12,0,0,1-1.58,4.91A5.59,5.59,0,0,1,482.9,31a5.78,5.78,0,0,1-3.06-.81,5.3,5.3,0,0,1-2.06-2.32,8,8,0,0,1-.73-3.54,7.06,7.06,0,0,1,1.57-4.89A5.55,5.55,0,0,1,483,17.68a5.39,5.39,0,0,1,4.28,1.79A7.05,7.05,0,0,1,488.85,24.32Zm-9.78,0a6.07,6.07,0,0,0,1,3.75,3.91,3.91,0,0,0,5.8,0,6.09,6.09,0,0,0,1-3.76,6,6,0,0,0-1-3.72,3.48,3.48,0,0,0-2.93-1.27A3.44,3.44,0,0,0,480,20.58,6.05,6.05,0,0,0,479.07,24.32Z"/><path class="cls-1" d="M500.85,30.75v-8.3a3.35,3.35,0,0,0-.71-2.35,2.94,2.94,0,0,0-2.24-.77A3.67,3.67,0,0,0,495,20.42,5.47,5.47,0,0,0,494,24v6.73h-1.95V17.91h1.59l.31,1.76h.1a4,4,0,0,1,1.67-1.47,5.41,5.41,0,0,1,2.4-.52,4.87,4.87,0,0,1,3.5,1.12,4.76,4.76,0,0,1,1.17,3.58v8.37Z"/><rect class="cls-2" y="44.5" width="331" height="198"/><rect class="cls-2" x="340" y="44.5" width="360" height="198"/><path class="cls-3" d="M48.1,219.32H71.3v-23.2H48.1Z"/><path class="cls-4" d="M109.86,196.26H9.67a2.17,2.17,0,0,1-2.19-2.2v-56a2.17,2.17,0,0,1,2.19-2.2H109.86a2.17,2.17,0,0,1,2.2,2.2v55.86A2.29,2.29,0,0,1,109.86,196.26Z"/><path class="cls-5" d="M34.65,219.32h50"/><path class="cls-6" d="M166.12,146a2.3,2.3,0,0,1-.85,1.87,3.75,3.75,0,0,1-2.38.68,5.41,5.41,0,0,1-2.47-.53v-1.72a11.36,11.36,0,0,0,1.49.56A4.39,4.39,0,0,0,163,147a1.62,1.62,0,0,0,.93-.23.81.81,0,0,0,.33-.7.83.83,0,0,0-.14-.46,1.64,1.64,0,0,0-.43-.38,9.06,9.06,0,0,0-1.13-.59,5.66,5.66,0,0,1-1.2-.73,2.64,2.64,0,0,1-.64-.81,2.25,2.25,0,0,1-.24-1.07,2.28,2.28,0,0,1,.78-1.83,3.3,3.3,0,0,1,2.18-.66,5,5,0,0,1,1.3.16,10.64,10.64,0,0,1,1.3.45l-.6,1.45a8.53,8.53,0,0,0-1.16-.4,3.6,3.6,0,0,0-.9-.12,1.17,1.17,0,0,0-.81.25.79.79,0,0,0-.28.64.89.89,0,0,0,.11.43,1.4,1.4,0,0,0,.37.35,10.1,10.1,0,0,0,1.17.61,4.53,4.53,0,0,1,1.68,1.18A2.24,2.24,0,0,1,166.12,146Z"/><path class="cls-6" d="M170.8,143.28l1.82-3.61h2l-2.9,5.35v3.4h-1.84v-3.34l-2.9-5.41h2Z"/><path class="cls-6" d="M183.65,148.42H181.3l-3.81-6.62h-.05c.07,1.17.11,2,.11,2.51v4.11h-1.66v-8.75h2.34l3.8,6.56h0c-.06-1.14-.09-1.95-.09-2.42v-4.14h1.67Z"/><path class="cls-6" d="M166.66,208.42l-.63-2.08h-3.19l-.64,2.08h-2l3.08-8.78h2.27l3.1,8.78Zm-1.08-3.64c-.58-1.89-.91-2.95-1-3.2s-.12-.44-.15-.59c-.14.51-.51,1.78-1.14,3.79Z"/><path class="cls-6" d="M173.32,201.09a1.87,1.87,0,0,0-1.62.79,3.66,3.66,0,0,0-.58,2.19c0,2,.74,2.92,2.2,2.92a6.81,6.81,0,0,0,2.23-.46v1.56a6.18,6.18,0,0,1-2.4.45,3.66,3.66,0,0,1-2.92-1.16,4.87,4.87,0,0,1-1-3.32,5.43,5.43,0,0,1,.49-2.39,3.6,3.6,0,0,1,1.43-1.58,4.27,4.27,0,0,1,2.18-.54,5.89,5.89,0,0,1,2.56.61l-.6,1.51a9.24,9.24,0,0,0-1-.41A3.11,3.11,0,0,0,173.32,201.09Z"/><path class="cls-6" d="M184.4,208.42h-2.1L180,204.73l-.79.57v3.12h-1.85v-8.75h1.85v4l.73-1,2.37-3h2.06l-3,3.87Z"/><path class="cls-6" d="M152.43,176a2.3,2.3,0,0,1-.85,1.87,3.75,3.75,0,0,1-2.38.68,5.54,5.54,0,0,1-2.47-.53v-1.72a11.36,11.36,0,0,0,1.49.56,4.87,4.87,0,0,0,1.13.16,1.54,1.54,0,0,0,.93-.24.78.78,0,0,0,.33-.69.77.77,0,0,0-.15-.46,1.44,1.44,0,0,0-.42-.38,10.19,10.19,0,0,0-1.13-.6,5.08,5.08,0,0,1-1.2-.72,2.64,2.64,0,0,1-.64-.81,2.53,2.53,0,0,1,.54-2.9,3.3,3.3,0,0,1,2.18-.66,5,5,0,0,1,1.3.16,10.64,10.64,0,0,1,1.3.45l-.6,1.45a8.81,8.81,0,0,0-1.16-.41,4.1,4.1,0,0,0-.9-.11,1.17,1.17,0,0,0-.81.25.79.79,0,0,0-.28.64.82.82,0,0,0,.11.42,1.27,1.27,0,0,0,.37.36,10.1,10.1,0,0,0,1.17.61,4.53,4.53,0,0,1,1.68,1.18A2.24,2.24,0,0,1,152.43,176Z"/><path class="cls-6" d="M157.11,173.27l1.82-3.6h2L158,175v3.4h-1.84v-3.34l-2.9-5.41h2Z"/><path class="cls-6" d="M170,178.42h-2.35l-3.81-6.62h-.05c.07,1.17.11,2,.11,2.5v4.12H162.2v-8.75h2.34l3.8,6.55h0c-.06-1.13-.09-1.94-.09-2.41v-4.14H170Z"/><path class="cls-6" d="M180.7,178.42l-.63-2.08h-3.19l-.63,2.08h-2l3.08-8.78h2.27l3.1,8.78Zm-1.07-3.64c-.59-1.88-.92-2.95-1-3.2s-.13-.44-.16-.58c-.13.51-.51,1.77-1.13,3.78Z"/><path class="cls-6" d="M187.36,171.09a1.87,1.87,0,0,0-1.62.79,3.66,3.66,0,0,0-.57,2.19c0,2,.73,2.93,2.19,2.93a7.08,7.08,0,0,0,2.23-.46v1.55a6.11,6.11,0,0,1-2.4.45,3.67,3.67,0,0,1-2.92-1.16,4.92,4.92,0,0,1-1-3.32,5.29,5.29,0,0,1,.5-2.39,3.5,3.5,0,0,1,1.42-1.57,4.18,4.18,0,0,1,2.18-.55,5.86,5.86,0,0,1,2.56.61l-.59,1.51c-.33-.15-.66-.29-1-.41A3.11,3.11,0,0,0,187.36,171.09Z"/><path class="cls-6" d="M198.45,178.42h-2.11l-2.29-3.69-.78.57v3.12h-1.86v-8.75h1.86v4l.73-1,2.36-3h2.06l-3,3.87Z"/><line class="cls-7" x1="134.49" y1="159.11" x2="207.84" y2="159.11"/><polygon class="cls-8" points="203.85 162.5 207.25 159.11 203.85 155.72 206.73 155.72 210.12 159.11 206.73 162.5 203.85 162.5"/><line class="cls-9" x1="136.77" y1="189.11" x2="210.12" y2="189.11"/><polygon class="cls-10" points="140.76 192.5 137.36 189.11 140.76 185.72 137.88 185.72 134.49 189.11 137.88 192.5 140.76 192.5"/><line class="cls-11" x1="134.49" y1="219.32" x2="207.84" y2="219.32"/><polygon class="cls-12" points="203.85 222.71 207.25 219.32 203.85 215.93 206.73 215.93 210.12 219.32 206.73 222.71 203.85 222.71"/><path class="cls-1" d="M112.72,79.27h-1.33V69h-3.61V67.85h8.56V69h-3.62Z"/><path class="cls-1" d="M122.57,68.87a3.76,3.76,0,0,0-3,1.25,6.07,6.07,0,0,0,0,6.9,3.71,3.71,0,0,0,3,1.23,10.5,10.5,0,0,0,2.73-.43V79a8.32,8.32,0,0,1-2.93.45,5,5,0,0,1-3.9-1.54,6.32,6.32,0,0,1-1.37-4.35,6.86,6.86,0,0,1,.66-3.09,4.74,4.74,0,0,1,1.91-2,5.76,5.76,0,0,1,2.93-.72,7,7,0,0,1,3.14.66l-.56,1.14A6,6,0,0,0,122.57,68.87Z"/><path class="cls-1" d="M135,71.18a3.19,3.19,0,0,1-1.19,2.66,5.29,5.29,0,0,1-3.38.94H129v4.49H127.7V67.85h3Q134.95,67.85,135,71.18ZM129,73.64h1.2a4.43,4.43,0,0,0,2.55-.57,2.09,2.09,0,0,0,.79-1.83,2,2,0,0,0-.74-1.69,3.89,3.89,0,0,0-2.31-.55H129Z"/><path class="cls-1" d="M150.17,79.27h-1.33V73.89h-6v5.38h-1.33V67.85h1.33v4.86h6V67.85h1.33Z"/><path class="cls-1" d="M160.65,79.27l-1.42-3.63h-4.58l-1.4,3.63H151.9l4.52-11.47h1.12L162,79.27Zm-1.83-4.83-1.33-3.54c-.17-.45-.35-1-.53-1.65a17,17,0,0,1-.49,1.65l-1.35,3.54Z"/><path class="cls-1" d="M172.69,79.27h-1.52l-6.24-9.59h-.06c.08,1.13.12,2.16.12,3.1v6.49h-1.22V67.85h1.5l6.22,9.54h.07c0-.14,0-.59-.07-1.35s-.05-1.31,0-1.64V67.85h1.24Z"/><path class="cls-1" d="M184.83,73.45a5.73,5.73,0,0,1-1.54,4.32,6,6,0,0,1-4.41,1.5h-3.17V67.85h3.5a5.12,5.12,0,0,1,5.62,5.6Zm-1.41,0a4.59,4.59,0,0,0-1.12-3.37A4.48,4.48,0,0,0,179,69H177v9.12h1.62A4.92,4.92,0,0,0,182.23,77,4.64,4.64,0,0,0,183.42,73.5Z"/><path class="cls-1" d="M193.66,76.23a2.8,2.8,0,0,1-1.09,2.35,4.76,4.76,0,0,1-3,.85,7.4,7.4,0,0,1-3.12-.53V77.62a8.56,8.56,0,0,0,1.53.47,8.38,8.38,0,0,0,1.64.17,3.37,3.37,0,0,0,2-.5,1.66,1.66,0,0,0,.67-1.41,1.81,1.81,0,0,0-.24-1,2.31,2.31,0,0,0-.79-.7,12,12,0,0,0-1.7-.72,5.32,5.32,0,0,1-2.28-1.36,3,3,0,0,1-.68-2,2.55,2.55,0,0,1,1-2.11,4.11,4.11,0,0,1,2.62-.78,7.73,7.73,0,0,1,3.14.63L193,69.46a7.17,7.17,0,0,0-2.75-.59,2.69,2.69,0,0,0-1.65.45,1.53,1.53,0,0,0-.59,1.26,1.86,1.86,0,0,0,.22,1,1.93,1.93,0,0,0,.74.7,9.16,9.16,0,0,0,1.59.7A6.37,6.37,0,0,1,193,74.32,2.72,2.72,0,0,1,193.66,76.23Z"/><path class="cls-1" d="M204.49,79.27h-1.33V73.89h-6v5.38h-1.33V67.85h1.33v4.86h6V67.85h1.33Z"/><path class="cls-1" d="M215,79.27l-1.42-3.63H209l-1.41,3.63h-1.34l4.52-11.47h1.11l4.5,11.47Zm-1.84-4.83-1.32-3.54a16.27,16.27,0,0,1-.53-1.65,14.82,14.82,0,0,1-.5,1.65l-1.34,3.54Z"/><path class="cls-1" d="M226.34,79.27h-1.56l-4.16-5.54-1.2,1.06v4.48h-1.33V67.85h1.33v5.66l5.18-5.66h1.57l-4.59,5Z"/><path class="cls-1" d="M234.45,79.27h-6.37V67.85h6.37V69h-5v3.68h4.73v1.17h-4.73v4.2h5Z"/><path class="cls-13" d="M320.5,156.52H234.32a3,3,0,0,0-3,3v29.5a3,3,0,0,0,3,3H320.5a3,3,0,0,0,3-3v-29.5A3,3,0,0,0,320.5,156.52Zm-.44,32.09h-85.3V160h85.3Zm-43.69-8.76V168.74a1,1,0,0,1,2.08,0v11.11a1,1,0,1,1-2.08,0Zm7.74,0V168.74a1,1,0,1,1,2.08,0v11.11a1,1,0,0,1-2.08,0Zm7.74,0V168.74a1,1,0,1,1,2.07,0v11.11a1,1,0,1,1-2.07,0Zm7.73,0V168.74a1,1,0,0,1,2.08,0v11.11a1,1,0,1,1-2.08,0Zm-54.16,0V168.74a1,1,0,1,1,2.08,0v11.11a1,1,0,1,1-2.08,0Zm7.74,0V168.74a1,1,0,1,1,2.08,0v11.11a1,1,0,1,1-2.08,0Zm7.74,0V168.74a1,1,0,1,1,2.07,0v11.11a1,1,0,1,1-2.07,0Zm7.73,0V168.74a1,1,0,0,1,2.08,0v11.11a1,1,0,1,1-2.08,0Zm38.69,0V168.74a1,1,0,0,1,2.08,0v11.11a1,1,0,1,1-2.08,0Zm2.29,17.09a1.73,1.73,0,0,1-1.73,1.73H246.94a1.73,1.73,0,0,1,0-3.46h60.94A1.72,1.72,0,0,1,309.61,196.94Z"/><path class="cls-14" d="M406.1,219.24h23.2V196H406.1Z"/><path class="cls-15" d="M467.86,196.18H367.67a2.17,2.17,0,0,1-2.19-2.2V138a2.16,2.16,0,0,1,2.19-2.19H467.86a2.17,2.17,0,0,1,2.2,2.19v55.86A2.29,2.29,0,0,1,467.86,196.18Z"/><path class="cls-16" d="M392.65,219.24h50"/><path class="cls-6" d="M501.62,145.2v3.35h-1.85V139.8h2.55a4.42,4.42,0,0,1,2.64.65,2.32,2.32,0,0,1,.85,2,2.35,2.35,0,0,1-.42,1.38,2.89,2.89,0,0,1-1.21.94q2,3,2.58,3.81H504.7l-2.09-3.35Zm0-1.51h.6a2.25,2.25,0,0,0,1.3-.3,1,1,0,0,0,.42-.92.94.94,0,0,0-.43-.88,2.57,2.57,0,0,0-1.33-.27h-.56Z"/><path class="cls-6" d="M513.06,148.55h-5V139.8h5v1.52h-3.18v1.92h3v1.52h-3V147h3.18Z"/><path class="cls-6" d="M520.18,146.12a2.27,2.27,0,0,1-.85,1.87,3.73,3.73,0,0,1-2.37.68,5.45,5.45,0,0,1-2.48-.53v-1.72a10.91,10.91,0,0,0,1.5.56,4.32,4.32,0,0,0,1.12.16,1.65,1.65,0,0,0,.94-.23.89.89,0,0,0,.18-1.16,1.75,1.75,0,0,0-.42-.38,10.32,10.32,0,0,0-1.14-.59,5.51,5.51,0,0,1-1.2-.73,2.64,2.64,0,0,1-.64-.81,2.51,2.51,0,0,1,.55-2.9,3.27,3.27,0,0,1,2.17-.66,5,5,0,0,1,1.3.16,9.59,9.59,0,0,1,1.3.45l-.6,1.45a8.09,8.09,0,0,0-1.16-.4,3.48,3.48,0,0,0-.9-.12,1.17,1.17,0,0,0-.81.25.82.82,0,0,0-.28.64.8.8,0,0,0,.12.43,1.1,1.1,0,0,0,.36.35,11.09,11.09,0,0,0,1.17.61,4.67,4.67,0,0,1,1.69,1.18A2.29,2.29,0,0,1,520.18,146.12Z"/><path class="cls-6" d="M527.87,142.53a2.7,2.7,0,0,1-.88,2.16,3.79,3.79,0,0,1-2.52.75h-.79v3.11h-1.86V139.8h2.8a3.69,3.69,0,0,1,2.42.69A2.51,2.51,0,0,1,527.87,142.53Zm-4.19,1.39h.61a2,2,0,0,0,1.28-.34,1.39,1.39,0,0,0,.07-1.94,1.66,1.66,0,0,0-1.12-.32h-.84Z"/><path class="cls-6" d="M537.51,144.17a4.72,4.72,0,0,1-1.08,3.33,4.67,4.67,0,0,1-6.18,0,4.78,4.78,0,0,1-1.07-3.35,4.7,4.7,0,0,1,1.08-3.33,4,4,0,0,1,3.09-1.15,4,4,0,0,1,3.09,1.16A4.75,4.75,0,0,1,537.51,144.17Zm-6.39,0a3.64,3.64,0,0,0,.56,2.2,1.93,1.93,0,0,0,1.66.75c1.48,0,2.22-1,2.22-3s-.73-3-2.21-3a2,2,0,0,0-1.67.74A3.71,3.71,0,0,0,531.12,144.17Z"/><path class="cls-6" d="M547.07,148.55h-2.36l-3.81-6.62h0c.07,1.17.11,2,.11,2.51v4.11H539.3V139.8h2.34l3.8,6.56h0c-.06-1.14-.09-2-.09-2.42V139.8h1.67Z"/><path class="cls-6" d="M554.54,146.12a2.28,2.28,0,0,1-.86,1.87,3.73,3.73,0,0,1-2.37.68,5.48,5.48,0,0,1-2.48-.53v-1.72a10.91,10.91,0,0,0,1.5.56,4.32,4.32,0,0,0,1.12.16,1.65,1.65,0,0,0,.94-.23.81.81,0,0,0,.33-.7.77.77,0,0,0-.15-.46,1.44,1.44,0,0,0-.42-.38,9.89,9.89,0,0,0-1.13-.59,5.37,5.37,0,0,1-1.21-.73,2.8,2.8,0,0,1-.64-.81,2.25,2.25,0,0,1-.24-1.07,2.29,2.29,0,0,1,.79-1.83,3.3,3.3,0,0,1,2.18-.66,5,5,0,0,1,1.3.16,10,10,0,0,1,1.29.45l-.6,1.45a8,8,0,0,0-1.15-.4,3.6,3.6,0,0,0-.9-.12,1.17,1.17,0,0,0-.81.25.79.79,0,0,0-.28.64.89.89,0,0,0,.11.43,1.34,1.34,0,0,0,.36.35,11.66,11.66,0,0,0,1.18.61,4.53,4.53,0,0,1,1.68,1.18A2.3,2.3,0,0,1,554.54,146.12Z"/><path class="cls-6" d="M561.22,148.55h-5V139.8h5v1.52H558v1.92h3v1.52h-3V147h3.19Z"/><path class="cls-6" d="M501.62,175.19v3.36h-1.85V169.8h2.55a4.42,4.42,0,0,1,2.64.65,2.32,2.32,0,0,1,.85,2,2.35,2.35,0,0,1-.42,1.38,2.89,2.89,0,0,1-1.21.94q2,3,2.58,3.81H504.7l-2.09-3.36Zm0-1.5h.6a2.25,2.25,0,0,0,1.3-.3,1,1,0,0,0,.42-.92.94.94,0,0,0-.43-.88,2.57,2.57,0,0,0-1.33-.27h-.56Z"/><path class="cls-6" d="M513.06,178.55h-5V169.8h5v1.52h-3.18v1.92h3v1.52h-3V177h3.18Z"/><path class="cls-6" d="M520.18,176.12a2.27,2.27,0,0,1-.85,1.87,3.73,3.73,0,0,1-2.37.68,5.58,5.58,0,0,1-2.48-.53v-1.72a10.91,10.91,0,0,0,1.5.56,4.79,4.79,0,0,0,1.12.16,1.57,1.57,0,0,0,.94-.24.79.79,0,0,0,.32-.69.83.83,0,0,0-.14-.46,1.75,1.75,0,0,0-.42-.38,11.81,11.81,0,0,0-1.14-.6,5.53,5.53,0,0,1-1.2-.72,2.64,2.64,0,0,1-.64-.81,2.51,2.51,0,0,1,.55-2.9,3.27,3.27,0,0,1,2.17-.66,5,5,0,0,1,1.3.16,9.59,9.59,0,0,1,1.3.45l-.6,1.45a8.33,8.33,0,0,0-1.16-.41,4,4,0,0,0-.9-.11,1.17,1.17,0,0,0-.81.25.82.82,0,0,0-.28.64.74.74,0,0,0,.12.42,1.12,1.12,0,0,0,.36.36,11.09,11.09,0,0,0,1.17.61,4.67,4.67,0,0,1,1.69,1.18A2.29,2.29,0,0,1,520.18,176.12Z"/><path class="cls-6" d="M527.87,172.53a2.7,2.7,0,0,1-.88,2.16,3.79,3.79,0,0,1-2.52.75h-.79v3.11h-1.86V169.8h2.8a3.69,3.69,0,0,1,2.42.69A2.5,2.5,0,0,1,527.87,172.53Zm-4.19,1.39h.61a2,2,0,0,0,1.28-.34,1.18,1.18,0,0,0,.43-1,1.22,1.22,0,0,0-.36-1,1.72,1.72,0,0,0-1.12-.31h-.84Z"/><path class="cls-6" d="M537.51,174.16a4.74,4.74,0,0,1-1.08,3.34,4.67,4.67,0,0,1-6.18,0,4.8,4.8,0,0,1-1.07-3.35,4.7,4.7,0,0,1,1.08-3.33,4,4,0,0,1,3.09-1.15,4,4,0,0,1,3.09,1.16A4.74,4.74,0,0,1,537.51,174.16Zm-6.39,0a3.65,3.65,0,0,0,.56,2.21,1.92,1.92,0,0,0,1.66.74c1.48,0,2.22-1,2.22-3s-.73-2.95-2.21-2.95a2,2,0,0,0-1.67.74A3.69,3.69,0,0,0,531.12,174.16Z"/><path class="cls-6" d="M547.07,178.55h-2.36l-3.81-6.62h0c.07,1.17.11,2,.11,2.5v4.12H539.3V169.8h2.34l3.8,6.55h0c-.06-1.13-.09-1.94-.09-2.41V169.8h1.67Z"/><path class="cls-6" d="M554.54,176.12a2.28,2.28,0,0,1-.86,1.87,3.73,3.73,0,0,1-2.37.68,5.62,5.62,0,0,1-2.48-.53v-1.72a10.91,10.91,0,0,0,1.5.56,4.79,4.79,0,0,0,1.12.16,1.57,1.57,0,0,0,.94-.24.78.78,0,0,0,.33-.69.77.77,0,0,0-.15-.46,1.44,1.44,0,0,0-.42-.38,11.27,11.27,0,0,0-1.13-.6,5.4,5.4,0,0,1-1.21-.72,2.8,2.8,0,0,1-.64-.81,2.51,2.51,0,0,1,.55-2.9,3.3,3.3,0,0,1,2.18-.66,5,5,0,0,1,1.3.16,10,10,0,0,1,1.29.45l-.6,1.45a8.27,8.27,0,0,0-1.15-.41,4.1,4.1,0,0,0-.9-.11,1.17,1.17,0,0,0-.81.25.79.79,0,0,0-.28.64.82.82,0,0,0,.11.42,1.36,1.36,0,0,0,.36.36,11.66,11.66,0,0,0,1.18.61,4.53,4.53,0,0,1,1.68,1.18A2.3,2.3,0,0,1,554.54,176.12Z"/><path class="cls-6" d="M561.22,178.55h-5V169.8h5v1.52H558v1.92h3v1.52h-3V177h3.19Z"/><path class="cls-6" d="M501.62,205.19v3.36h-1.85V199.8h2.55a4.42,4.42,0,0,1,2.64.65,2.31,2.31,0,0,1,.85,2,2.37,2.37,0,0,1-.42,1.38,2.89,2.89,0,0,1-1.21.94q2,2.94,2.58,3.81H504.7l-2.09-3.36Zm0-1.51h.6a2.25,2.25,0,0,0,1.3-.29,1,1,0,0,0,.42-.92.94.94,0,0,0-.43-.88,2.57,2.57,0,0,0-1.33-.27h-.56Z"/><path class="cls-6" d="M513.06,208.55h-5V199.8h5v1.52h-3.18v1.92h3v1.52h-3V207h3.18Z"/><path class="cls-6" d="M520.18,206.12a2.27,2.27,0,0,1-.85,1.87,3.73,3.73,0,0,1-2.37.68,5.58,5.58,0,0,1-2.48-.53v-1.72a10.91,10.91,0,0,0,1.5.56,4.79,4.79,0,0,0,1.12.16,1.57,1.57,0,0,0,.94-.24.79.79,0,0,0,.32-.69.83.83,0,0,0-.14-.46,1.75,1.75,0,0,0-.42-.38,11.81,11.81,0,0,0-1.14-.6,5.53,5.53,0,0,1-1.2-.72,2.64,2.64,0,0,1-.64-.81,2.28,2.28,0,0,1-.24-1.07,2.25,2.25,0,0,1,.79-1.83,3.27,3.27,0,0,1,2.17-.66,5,5,0,0,1,1.3.16,9.59,9.59,0,0,1,1.3.45l-.6,1.44a9.57,9.57,0,0,0-1.16-.4,4,4,0,0,0-.9-.11,1.17,1.17,0,0,0-.81.25.82.82,0,0,0-.28.64.74.74,0,0,0,.12.42,1.22,1.22,0,0,0,.36.36c.16.11.56.31,1.17.61a4.67,4.67,0,0,1,1.69,1.18A2.29,2.29,0,0,1,520.18,206.12Z"/><path class="cls-6" d="M527.87,202.53a2.7,2.7,0,0,1-.88,2.16,3.79,3.79,0,0,1-2.52.75h-.79v3.11h-1.86V199.8h2.8a3.69,3.69,0,0,1,2.42.69A2.48,2.48,0,0,1,527.87,202.53Zm-4.19,1.39h.61a2,2,0,0,0,1.28-.34,1.19,1.19,0,0,0,.43-1,1.22,1.22,0,0,0-.36-1,1.72,1.72,0,0,0-1.12-.31h-.84Z"/><path class="cls-6" d="M537.51,204.16a4.74,4.74,0,0,1-1.08,3.34,4.67,4.67,0,0,1-6.18,0,4.8,4.8,0,0,1-1.07-3.35,4.68,4.68,0,0,1,1.08-3.33,4.7,4.7,0,0,1,6.18,0A4.79,4.79,0,0,1,537.51,204.16Zm-6.39,0a3.65,3.65,0,0,0,.56,2.21,1.92,1.92,0,0,0,1.66.74c1.48,0,2.22-1,2.22-3s-.73-2.95-2.21-2.95a2,2,0,0,0-1.67.74A3.69,3.69,0,0,0,531.12,204.16Z"/><path class="cls-6" d="M547.07,208.55h-2.36l-3.81-6.62h0c.07,1.17.11,2,.11,2.5v4.12H539.3V199.8h2.34l3.8,6.55h0c-.06-1.13-.09-1.94-.09-2.41V199.8h1.67Z"/><path class="cls-6" d="M554.54,206.12a2.28,2.28,0,0,1-.86,1.87,3.73,3.73,0,0,1-2.37.68,5.62,5.62,0,0,1-2.48-.53v-1.72a10.91,10.91,0,0,0,1.5.56,4.79,4.79,0,0,0,1.12.16,1.57,1.57,0,0,0,.94-.24.78.78,0,0,0,.33-.69.77.77,0,0,0-.15-.46,1.44,1.44,0,0,0-.42-.38,11.27,11.27,0,0,0-1.13-.6,5.4,5.4,0,0,1-1.21-.72,2.8,2.8,0,0,1-.64-.81,2.51,2.51,0,0,1,.55-2.9,3.3,3.3,0,0,1,2.18-.66,5,5,0,0,1,1.3.16,10,10,0,0,1,1.29.45l-.6,1.44a9.51,9.51,0,0,0-1.15-.4,4.1,4.1,0,0,0-.9-.11,1.17,1.17,0,0,0-.81.25.79.79,0,0,0-.28.64.82.82,0,0,0,.11.42,1.53,1.53,0,0,0,.36.36c.17.11.56.31,1.18.61a4.53,4.53,0,0,1,1.68,1.18A2.3,2.3,0,0,1,554.54,206.12Z"/><path class="cls-6" d="M561.22,208.55h-5V199.8h5v1.52H558v1.92h3v1.52h-3V207h3.19Z"/><line class="cls-17" x1="492.49" y1="159.24" x2="565.84" y2="159.24"/><polygon class="cls-18" points="561.85 162.63 565.25 159.24 561.85 155.85 564.73 155.85 568.12 159.24 564.73 162.63 561.85 162.63"/><line class="cls-19" x1="492.49" y1="189.24" x2="565.84" y2="189.24"/><polygon class="cls-20" points="561.85 192.63 565.25 189.24 561.85 185.85 564.73 185.85 568.12 189.24 564.73 192.63 561.85 192.63"/><path class="cls-6" d="M505.67,115.2v3.35h-1.85v-8.74h2.55a4.39,4.39,0,0,1,2.64.64,2.61,2.61,0,0,1,.43,3.35,2.89,2.89,0,0,1-1.21.94q2,3,2.58,3.81h-2.06l-2.09-3.35Zm0-1.51h.6a2.34,2.34,0,0,0,1.3-.29,1.07,1.07,0,0,0,.42-.93.94.94,0,0,0-.43-.88,2.54,2.54,0,0,0-1.32-.26h-.57Z"/><path class="cls-6" d="M517.11,118.55h-5v-8.74h5v1.52h-3.18v1.92h3v1.52h-3V117h3.18Z"/><path class="cls-6" d="M526.81,114.17a5.41,5.41,0,0,1-.55,2.58,3.3,3.3,0,0,1-1.6,1.53l2.1,2.35h-2.37l-1.61-2h-.14a4,4,0,0,1-3.08-1.16,4.77,4.77,0,0,1-1.08-3.35,4.71,4.71,0,0,1,1.08-3.34,4,4,0,0,1,3.1-1.15,4,4,0,0,1,3.08,1.16A4.75,4.75,0,0,1,526.81,114.17Zm-6.39,0a3.64,3.64,0,0,0,.56,2.2,1.94,1.94,0,0,0,1.66.75c1.48,0,2.22-1,2.22-3s-.73-3-2.2-3A2,2,0,0,0,521,112,3.58,3.58,0,0,0,520.42,114.17Z"/><path class="cls-6" d="M535.71,109.81v5.66a3.22,3.22,0,0,1-.43,1.69,2.84,2.84,0,0,1-1.25,1.12,4.51,4.51,0,0,1-1.94.39,3.73,3.73,0,0,1-2.62-.86,3.09,3.09,0,0,1-.94-2.37v-5.63h1.85v5.35a2.24,2.24,0,0,0,.41,1.48,2.1,2.1,0,0,0,2.67,0,2.27,2.27,0,0,0,.41-1.49v-5.34Z"/><path class="cls-6" d="M542.87,118.55h-5v-8.74h5v1.52h-3.19v1.92h3v1.52h-3V117h3.19Z"/><path class="cls-6" d="M550,116.12a2.27,2.27,0,0,1-.85,1.87,3.67,3.67,0,0,1-2.37.68,5.61,5.61,0,0,1-2.48-.52v-1.73a9.74,9.74,0,0,0,1.5.56,4.32,4.32,0,0,0,1.12.16,1.65,1.65,0,0,0,.94-.23.8.8,0,0,0,.32-.7.71.71,0,0,0-.14-.45,1.59,1.59,0,0,0-.42-.39,11.24,11.24,0,0,0-1.14-.59,5.51,5.51,0,0,1-1.2-.73,2.89,2.89,0,0,1-.64-.8,2.32,2.32,0,0,1-.24-1.08,2.29,2.29,0,0,1,.79-1.83,3.27,3.27,0,0,1,2.17-.66,5.11,5.11,0,0,1,1.31.16,8.77,8.77,0,0,1,1.29.46l-.6,1.44a8,8,0,0,0-1.15-.4,3.61,3.61,0,0,0-.91-.12,1.18,1.18,0,0,0-.8.25.8.8,0,0,0-.28.64.79.79,0,0,0,.11.43,1.21,1.21,0,0,0,.36.35,11.66,11.66,0,0,0,1.18.61,4.74,4.74,0,0,1,1.68,1.18A2.29,2.29,0,0,1,550,116.12Z"/><path class="cls-6" d="M555.27,118.55h-1.86v-7.2H551v-1.54h6.6v1.54h-2.37Z"/><line class="cls-21" x1="494.77" y1="129.24" x2="568.12" y2="129.24"/><polygon class="cls-22" points="498.76 132.63 495.36 129.24 498.76 125.85 495.88 125.85 492.49 129.24 495.88 132.63 498.76 132.63"/><line class="cls-23" x1="492.49" y1="219.24" x2="565.84" y2="219.24"/><polygon class="cls-24" points="561.85 222.63 565.25 219.24 561.85 215.84 564.73 215.84 568.12 219.24 564.73 222.63 561.85 222.63"/><path class="cls-1" d="M523.33,67.76v7.4a4,4,0,0,1-1.18,3.07,4.52,4.52,0,0,1-3.24,1.11,4.32,4.32,0,0,1-3.19-1.12,4.19,4.19,0,0,1-1.13-3.1V67.76h1.33v7.46a2.93,2.93,0,0,0,.78,2.19,3.16,3.16,0,0,0,2.3.77,3,3,0,0,0,2.22-.77A3,3,0,0,0,522,75.2V67.76Z"/><path class="cls-1" d="M535.39,73.37a5.75,5.75,0,0,1-1.54,4.32,6.05,6.05,0,0,1-4.42,1.5h-3.16V67.76h3.5a5.14,5.14,0,0,1,5.62,5.61Zm-1.41,0a4.56,4.56,0,0,0-1.12-3.36,4.48,4.48,0,0,0-3.33-1.14H527.6V78h1.62a4.92,4.92,0,0,0,3.57-1.17A4.65,4.65,0,0,0,534,73.41Z"/><path class="cls-1" d="M545.09,71.09a3.19,3.19,0,0,1-1.18,2.67,5.39,5.39,0,0,1-3.39.93h-1.34v4.5h-1.33V67.76h3Q545.09,67.76,545.09,71.09Zm-5.91,2.46h1.19a4.47,4.47,0,0,0,2.56-.57,2.11,2.11,0,0,0,.79-1.82,2,2,0,0,0-.74-1.69,3.9,3.9,0,0,0-2.32-.56h-1.48Z"/><path class="cls-25" d="M671.5,156.44H585.32a3,3,0,0,0-3,3V189a3,3,0,0,0,3,3H671.5a3,3,0,0,0,3-3v-29.5A3,3,0,0,0,671.5,156.44Zm-.44,32.09h-85.3V159.9h85.3Zm-43.69-8.76V168.66a1,1,0,1,1,2.08,0v11.11a1,1,0,0,1-2.08,0Zm7.74,0V168.66a1,1,0,1,1,2.08,0v11.11a1,1,0,0,1-2.08,0Zm7.74,0V168.66a1,1,0,1,1,2.07,0v11.11a1,1,0,1,1-2.07,0Zm7.73,0V168.66a1,1,0,1,1,2.08,0v11.11a1,1,0,1,1-2.08,0Zm-54.16,0V168.66a1,1,0,1,1,2.08,0v11.11a1,1,0,0,1-2.08,0Zm7.74,0V168.66a1,1,0,1,1,2.08,0v11.11a1,1,0,0,1-2.08,0Zm7.74,0V168.66a1,1,0,1,1,2.07,0v11.11a1,1,0,1,1-2.07,0Zm7.73,0V168.66a1,1,0,1,1,2.08,0v11.11a1,1,0,0,1-2.08,0Zm38.69,0V168.66a1,1,0,1,1,2.08,0v11.11a1,1,0,1,1-2.08,0Zm2.29,17.08a1.72,1.72,0,0,1-1.73,1.73H597.94a1.73,1.73,0,0,1,0-3.46h60.94A1.73,1.73,0,0,1,660.61,196.85Z"/><path class="cls-26" d="M45.31,232.68a2.15,2.15,0,0,1-.83,1.79,3.56,3.56,0,0,1-2.28.65,5.46,5.46,0,0,1-2.38-.45v-1.32a6.35,6.35,0,0,0,1.25.43,5.05,5.05,0,0,0,1.22.16,2,2,0,0,0,1.23-.32,1,1,0,0,0,.4-.85,1,1,0,0,0-.37-.81,5.35,5.35,0,0,0-1.5-.79,4,4,0,0,1-1.65-1.09,2.27,2.27,0,0,1-.48-1.46,2,2,0,0,1,.76-1.69,3.17,3.17,0,0,1,2-.61,6,6,0,0,1,2.45.54L44.73,228a5.34,5.34,0,0,0-2-.48,1.62,1.62,0,0,0-1,.29,1,1,0,0,0-.35.79,1.15,1.15,0,0,0,.14.57,1.64,1.64,0,0,0,.46.45,8.2,8.2,0,0,0,1.16.55,6.83,6.83,0,0,1,1.39.73,2.1,2.1,0,0,1,.85,1.78Z"/><path class="cls-26" d="M49.65,235.12a3.14,3.14,0,0,1-2.37-.88,3.35,3.35,0,0,1-.85-2.43,3.63,3.63,0,0,1,.79-2.49,2.72,2.72,0,0,1,2.18-.91,2.65,2.65,0,0,1,2,.78,3,3,0,0,1,.75,2.14v.75H47.85a2.13,2.13,0,0,0,.51,1.45,1.8,1.8,0,0,0,1.35.5,4.57,4.57,0,0,0,1.07-.11,5.11,5.11,0,0,0,1.06-.36v1.12a3.88,3.88,0,0,1-1,.34A6,6,0,0,1,49.65,235.12Zm-.25-5.67a1.4,1.4,0,0,0-1.06.42,2,2,0,0,0-.47,1.21h2.94a1.76,1.76,0,0,0-.38-1.22A1.35,1.35,0,0,0,49.4,229.45Z"/><path class="cls-26" d="M59.43,235H58.05v-4a1.76,1.76,0,0,0-.3-1.12,1.19,1.19,0,0,0-1-.37,1.55,1.55,0,0,0-1.28.52,2.84,2.84,0,0,0-.4,1.73V235H53.73v-6.48h1.08l.19.85h.07a2,2,0,0,1,.84-.72,2.7,2.7,0,0,1,1.19-.25,2.07,2.07,0,0,1,2.33,2.37Z"/><path class="cls-26" d="M63.53,235.12a2.25,2.25,0,0,1-1.89-.88,3.93,3.93,0,0,1-.68-2.46,4,4,0,0,1,.69-2.49,2.29,2.29,0,0,1,1.91-.88,2.22,2.22,0,0,1,1.94.94h.07a9.4,9.4,0,0,1-.1-1.1v-2.36h1.39V235H65.78l-.24-.85h-.07A2.2,2.2,0,0,1,63.53,235.12ZM63.9,234a1.5,1.5,0,0,0,1.24-.48,2.51,2.51,0,0,0,.4-1.55v-.19a2.86,2.86,0,0,0-.4-1.74,1.5,1.5,0,0,0-1.25-.52,1.28,1.28,0,0,0-1.12.59,3,3,0,0,0-.39,1.68,2.94,2.94,0,0,0,.38,1.64A1.28,1.28,0,0,0,63.9,234Z"/><path class="cls-26" d="M71.66,235.12a3.14,3.14,0,0,1-2.37-.88,3.35,3.35,0,0,1-.85-2.43,3.63,3.63,0,0,1,.79-2.49,2.72,2.72,0,0,1,2.17-.91,2.67,2.67,0,0,1,2,.78,3,3,0,0,1,.74,2.14v.75H69.86a2.13,2.13,0,0,0,.51,1.45,1.8,1.8,0,0,0,1.35.5,4.57,4.57,0,0,0,1.07-.11,5.31,5.31,0,0,0,1.06-.36v1.12a3.83,3.83,0,0,1-1,.34A5.87,5.87,0,0,1,71.66,235.12Zm-.26-5.67a1.39,1.39,0,0,0-1.05.42,2,2,0,0,0-.47,1.21h2.94a1.82,1.82,0,0,0-.39-1.22A1.33,1.33,0,0,0,71.4,229.45Z"/><path class="cls-26" d="M79,228.41a3.23,3.23,0,0,1,.68.06l-.13,1.28a2.48,2.48,0,0,0-.61-.07,1.76,1.76,0,0,0-1.34.54,2,2,0,0,0-.51,1.4V235H75.74v-6.48h1.08l.18,1.14h.07a2.41,2.41,0,0,1,.84-.92A2,2,0,0,1,79,228.41Z"/><path class="cls-26" d="M254.84,231.58V235h-1.4v-8.57h2.42a4,4,0,0,1,2.45.62,2.23,2.23,0,0,1,.8,1.88,2.34,2.34,0,0,1-1.67,2.27l2.42,3.8h-1.59l-2-3.43Zm0-1.16h1a2.26,2.26,0,0,0,1.42-.36,1.32,1.32,0,0,0,.44-1.08,1.15,1.15,0,0,0-.48-1,2.59,2.59,0,0,0-1.43-.32h-.92Z"/><path class="cls-26" d="M263.79,235.12a3.1,3.1,0,0,1-2.36-.88,3.35,3.35,0,0,1-.86-2.43,3.68,3.68,0,0,1,.79-2.49,2.74,2.74,0,0,1,2.18-.91,2.69,2.69,0,0,1,2,.78,3,3,0,0,1,.74,2.14v.75H262a2.13,2.13,0,0,0,.51,1.45,1.8,1.8,0,0,0,1.35.5,4.51,4.51,0,0,0,1.07-.11,5.39,5.39,0,0,0,1.07-.36v1.12a4.08,4.08,0,0,1-1,.34A6,6,0,0,1,263.79,235.12Zm-.25-5.67a1.36,1.36,0,0,0-1.05.42,2,2,0,0,0-.48,1.21H265a1.82,1.82,0,0,0-.39-1.22A1.33,1.33,0,0,0,263.54,229.45Z"/><path class="cls-26" d="M270.49,235.12a2.82,2.82,0,0,1-2.24-.86,4.35,4.35,0,0,1,0-5,2.94,2.94,0,0,1,2.31-.88,4.35,4.35,0,0,1,1.84.38L272,229.9a4.07,4.07,0,0,0-1.44-.34c-1.12,0-1.68.74-1.68,2.23a2.68,2.68,0,0,0,.41,1.64,1.46,1.46,0,0,0,1.23.54,3.58,3.58,0,0,0,1.74-.45v1.2a2.71,2.71,0,0,1-.79.31A4.85,4.85,0,0,1,270.49,235.12Z"/><path class="cls-26" d="M276.65,235.12a3.14,3.14,0,0,1-2.37-.88,3.35,3.35,0,0,1-.85-2.43,3.63,3.63,0,0,1,.79-2.49,2.72,2.72,0,0,1,2.17-.91,2.67,2.67,0,0,1,2,.78,3,3,0,0,1,.74,2.14v.75h-4.31a2.13,2.13,0,0,0,.51,1.45,1.8,1.8,0,0,0,1.35.5,4.57,4.57,0,0,0,1.07-.11,5.31,5.31,0,0,0,1.06-.36v1.12a3.83,3.83,0,0,1-1,.34A5.87,5.87,0,0,1,276.65,235.12Zm-.26-5.67a1.39,1.39,0,0,0-1.05.42,2,2,0,0,0-.47,1.21h2.94a1.82,1.82,0,0,0-.39-1.22A1.33,1.33,0,0,0,276.39,229.45Z"/><path class="cls-26" d="M280.65,226.81a.74.74,0,0,1,.2-.57.8.8,0,0,1,.58-.2.77.77,0,0,1,.56.2.74.74,0,0,1,.2.57.72.72,0,0,1-.2.55.73.73,0,0,1-.56.2.76.76,0,0,1-.58-.2A.72.72,0,0,1,280.65,226.81Zm1.46,8.2h-1.38v-6.48h1.38Z"/><path class="cls-26" d="M285.55,235l-2.46-6.48h1.45l1.32,3.76a7,7,0,0,1,.41,1.54h.05a9.75,9.75,0,0,1,.41-1.54l1.32-3.76h1.46L287,235Z"/><path class="cls-26" d="M293.33,235.12a3.14,3.14,0,0,1-2.37-.88,3.35,3.35,0,0,1-.85-2.43,3.63,3.63,0,0,1,.79-2.49,2.72,2.72,0,0,1,2.18-.91,2.65,2.65,0,0,1,2,.78,3,3,0,0,1,.75,2.14v.75h-4.32a2.13,2.13,0,0,0,.51,1.45,1.8,1.8,0,0,0,1.35.5,4.57,4.57,0,0,0,1.07-.11,5.11,5.11,0,0,0,1.06-.36v1.12a3.83,3.83,0,0,1-1,.34A5.87,5.87,0,0,1,293.33,235.12Zm-.25-5.67a1.4,1.4,0,0,0-1.06.42,2,2,0,0,0-.47,1.21h2.94a1.76,1.76,0,0,0-.38-1.22A1.35,1.35,0,0,0,293.08,229.45Z"/><path class="cls-26" d="M300.7,228.41a3.17,3.17,0,0,1,.68.06l-.13,1.28a2.48,2.48,0,0,0-.61-.07,1.76,1.76,0,0,0-1.34.54,2,2,0,0,0-.51,1.4V235h-1.38v-6.48h1.08l.18,1.14h.07a2.58,2.58,0,0,1,.84-.92A2,2,0,0,1,300.7,228.41Z"/><path class="cls-26" d="M403.31,232.68a2.15,2.15,0,0,1-.83,1.79,3.56,3.56,0,0,1-2.28.65,5.46,5.46,0,0,1-2.38-.45v-1.32a6.35,6.35,0,0,0,1.25.43,5.05,5.05,0,0,0,1.22.16,2,2,0,0,0,1.23-.32,1,1,0,0,0,.4-.85,1,1,0,0,0-.37-.81,5.35,5.35,0,0,0-1.5-.79,4,4,0,0,1-1.65-1.09,2.27,2.27,0,0,1-.48-1.46,2,2,0,0,1,.76-1.69,3.17,3.17,0,0,1,2.05-.61,6,6,0,0,1,2.45.54l-.45,1.14a5.34,5.34,0,0,0-2-.48,1.62,1.62,0,0,0-1,.29,1,1,0,0,0-.35.79,1.15,1.15,0,0,0,.14.57,1.64,1.64,0,0,0,.46.45,8.2,8.2,0,0,0,1.16.55,6.83,6.83,0,0,1,1.39.73,2.1,2.1,0,0,1,.85,1.78Z"/><path class="cls-26" d="M407.65,235.12a3.14,3.14,0,0,1-2.37-.88,3.35,3.35,0,0,1-.85-2.43,3.63,3.63,0,0,1,.79-2.49,2.72,2.72,0,0,1,2.18-.91,2.65,2.65,0,0,1,2,.78,3,3,0,0,1,.75,2.14v.75h-4.32a2.13,2.13,0,0,0,.51,1.45,1.8,1.8,0,0,0,1.35.5,4.57,4.57,0,0,0,1.07-.11,5.11,5.11,0,0,0,1.06-.36v1.12a3.88,3.88,0,0,1-1,.34A6,6,0,0,1,407.65,235.12Zm-.25-5.67a1.4,1.4,0,0,0-1.06.42,2,2,0,0,0-.47,1.21h2.94a1.76,1.76,0,0,0-.38-1.22A1.35,1.35,0,0,0,407.4,229.45Z"/><path class="cls-26" d="M417.43,235h-1.38v-4a1.76,1.76,0,0,0-.3-1.12,1.19,1.19,0,0,0-1-.37,1.55,1.55,0,0,0-1.28.52,2.84,2.84,0,0,0-.4,1.73V235h-1.38v-6.48h1.08l.19.85h.07a2,2,0,0,1,.84-.72,2.7,2.7,0,0,1,1.19-.25,2.07,2.07,0,0,1,2.33,2.37Z"/><path class="cls-26" d="M421.53,235.12a2.25,2.25,0,0,1-1.89-.88,3.93,3.93,0,0,1-.68-2.46,4,4,0,0,1,.69-2.49,2.29,2.29,0,0,1,1.91-.88,2.22,2.22,0,0,1,1.94.94h.07a9.4,9.4,0,0,1-.1-1.1v-2.36h1.39V235h-1.08l-.24-.85h-.07A2.2,2.2,0,0,1,421.53,235.12Zm.37-1.11a1.5,1.5,0,0,0,1.24-.48,2.51,2.51,0,0,0,.4-1.55v-.19a2.86,2.86,0,0,0-.4-1.74,1.5,1.5,0,0,0-1.25-.52,1.28,1.28,0,0,0-1.12.59,3,3,0,0,0-.39,1.68,2.94,2.94,0,0,0,.38,1.64A1.28,1.28,0,0,0,421.9,234Z"/><path class="cls-26" d="M429.66,235.12a3.14,3.14,0,0,1-2.37-.88,3.35,3.35,0,0,1-.85-2.43,3.63,3.63,0,0,1,.79-2.49,2.72,2.72,0,0,1,2.17-.91,2.67,2.67,0,0,1,2,.78,3,3,0,0,1,.74,2.14v.75h-4.31a2.13,2.13,0,0,0,.51,1.45,1.8,1.8,0,0,0,1.35.5,4.57,4.57,0,0,0,1.07-.11,5.31,5.31,0,0,0,1.06-.36v1.12a3.83,3.83,0,0,1-1,.34A5.87,5.87,0,0,1,429.66,235.12Zm-.26-5.67a1.39,1.39,0,0,0-1,.42,2,2,0,0,0-.47,1.21h2.94a1.82,1.82,0,0,0-.39-1.22A1.33,1.33,0,0,0,429.4,229.45Z"/><path class="cls-26" d="M437,228.41a3.23,3.23,0,0,1,.68.06l-.13,1.28a2.48,2.48,0,0,0-.61-.07,1.76,1.76,0,0,0-1.34.54,2,2,0,0,0-.51,1.4V235h-1.38v-6.48h1.08l.18,1.14h.07a2.41,2.41,0,0,1,.84-.92A2,2,0,0,1,437,228.41Z"/><path class="cls-26" d="M605.84,231.58V235h-1.4v-8.57h2.42a4,4,0,0,1,2.45.62,2.23,2.23,0,0,1,.8,1.88,2.34,2.34,0,0,1-1.67,2.27l2.42,3.8h-1.59l-2-3.43Zm0-1.16h1a2.26,2.26,0,0,0,1.42-.36,1.32,1.32,0,0,0,.44-1.08,1.15,1.15,0,0,0-.48-1,2.59,2.59,0,0,0-1.43-.32h-.92Z"/><path class="cls-26" d="M614.79,235.12a3.1,3.1,0,0,1-2.36-.88,3.35,3.35,0,0,1-.86-2.43,3.68,3.68,0,0,1,.79-2.49,2.74,2.74,0,0,1,2.18-.91,2.69,2.69,0,0,1,2,.78,3,3,0,0,1,.74,2.14v.75H613a2.13,2.13,0,0,0,.51,1.45,1.8,1.8,0,0,0,1.35.5,4.51,4.51,0,0,0,1.07-.11,5.39,5.39,0,0,0,1.07-.36v1.12a4.08,4.08,0,0,1-1,.34A6,6,0,0,1,614.79,235.12Zm-.25-5.67a1.36,1.36,0,0,0-1,.42,2,2,0,0,0-.48,1.21h3a1.82,1.82,0,0,0-.39-1.22A1.33,1.33,0,0,0,614.54,229.45Z"/><path class="cls-26" d="M621.49,235.12a2.82,2.82,0,0,1-2.24-.86,4.35,4.35,0,0,1,0-5,2.94,2.94,0,0,1,2.31-.88,4.35,4.35,0,0,1,1.84.38L623,229.9a4.07,4.07,0,0,0-1.44-.34c-1.12,0-1.68.74-1.68,2.23a2.68,2.68,0,0,0,.41,1.64,1.46,1.46,0,0,0,1.23.54,3.58,3.58,0,0,0,1.74-.45v1.2a2.71,2.71,0,0,1-.79.31A4.85,4.85,0,0,1,621.49,235.12Z"/><path class="cls-26" d="M627.65,235.12a3.14,3.14,0,0,1-2.37-.88,3.35,3.35,0,0,1-.85-2.43,3.63,3.63,0,0,1,.79-2.49,2.72,2.72,0,0,1,2.17-.91,2.67,2.67,0,0,1,2,.78,3,3,0,0,1,.74,2.14v.75h-4.31a2.13,2.13,0,0,0,.51,1.45,1.8,1.8,0,0,0,1.35.5,4.57,4.57,0,0,0,1.07-.11,5.31,5.31,0,0,0,1.06-.36v1.12a3.83,3.83,0,0,1-1,.34A5.87,5.87,0,0,1,627.65,235.12Zm-.26-5.67a1.39,1.39,0,0,0-1,.42,2,2,0,0,0-.47,1.21h2.94a1.82,1.82,0,0,0-.39-1.22A1.33,1.33,0,0,0,627.39,229.45Z"/><path class="cls-26" d="M631.65,226.81a.74.74,0,0,1,.2-.57.8.8,0,0,1,.58-.2.77.77,0,0,1,.56.2.74.74,0,0,1,.2.57.72.72,0,0,1-.2.55.73.73,0,0,1-.56.2.76.76,0,0,1-.58-.2A.72.72,0,0,1,631.65,226.81Zm1.46,8.2h-1.38v-6.48h1.38Z"/><path class="cls-26" d="M636.55,235l-2.46-6.48h1.45l1.32,3.76a7,7,0,0,1,.41,1.54h.05a9.75,9.75,0,0,1,.41-1.54l1.32-3.76h1.46L638,235Z"/><path class="cls-26" d="M644.33,235.12a3.14,3.14,0,0,1-2.37-.88,3.35,3.35,0,0,1-.85-2.43,3.63,3.63,0,0,1,.79-2.49,2.72,2.72,0,0,1,2.18-.91,2.65,2.65,0,0,1,2,.78,3,3,0,0,1,.75,2.14v.75h-4.32a2.13,2.13,0,0,0,.51,1.45,1.8,1.8,0,0,0,1.35.5,4.57,4.57,0,0,0,1.07-.11,5.11,5.11,0,0,0,1.06-.36v1.12a3.83,3.83,0,0,1-1,.34A5.87,5.87,0,0,1,644.33,235.12Zm-.25-5.67a1.4,1.4,0,0,0-1.06.42,2,2,0,0,0-.47,1.21h2.94a1.76,1.76,0,0,0-.38-1.22A1.35,1.35,0,0,0,644.08,229.45Z"/><path class="cls-26" d="M651.7,228.41a3.17,3.17,0,0,1,.68.06l-.13,1.28a2.48,2.48,0,0,0-.61-.07,1.76,1.76,0,0,0-1.34.54,2,2,0,0,0-.51,1.4V235h-1.38v-6.48h1.08l.18,1.14h.07a2.58,2.58,0,0,1,.84-.92A2,2,0,0,1,651.7,228.41Z"/></svg>